<?xml version="1.0" encoding="utf-8"?>
<!-- Generator: Adobe Illustrator 23.0.1, SVG Export Plug-In . SVG Version: 6.00 Build 0)  -->
<svg version="1.1" id="Layer_1" xmlns="http://www.w3.org/2000/svg" xmlns:xlink="http://www.w3.org/1999/xlink" x="0px" y="0px"
	 viewBox="0 0 162.231 29.284" style="enable-background:new 0 0 162.231 29.284;" xml:space="preserve">
<path id="Fill-30" style="fill-rule:evenodd;clip-rule:evenodd;fill:#FFDF1B;" d="M94.535,7.16l0.05,0.19l2.51,8.4l-1.76,6.78
	c2.48-0.02,4.8-0.02,7.38,0.02l1.86-6.74l7.17-8.61l-0.04-0.09c-1.19,0.02-2.21,0.02-3.37,0c-1.44,1.69-2.99,3.54-4.55,5.28
	c-0.25,0.21-0.25,0.23-0.35-0.19c-0.53-1.67-1-3.4-1.58-5.09L94.535,7.16z"/>
<path id="Fill-31" style="fill-rule:evenodd;clip-rule:evenodd;fill:#FFDF1B;" d="M113.285,7.14c-1.34,5.09-2.58,10.07-3.97,15.14
	l-0.07,0.23h12.72c0.23-0.81,0.51-1.67,0.58-2.5l-5.22-0.02l-0.33-0.02l0.9-3.61l0.3-0.23h3.48l0.16-0.16
	c0.19-0.81,0.46-1.69,0.58-2.5l-3.64-0.07v-0.16c0.35-1.11,0.56-2.38,0.95-3.43c1.86-0.12,3.97,0.07,5.66-0.05
	c0.23-0.81,0.44-1.74,0.6-2.61h-12.7V7.14z"/>
<path id="Fill-32" style="fill-rule:evenodd;clip-rule:evenodd;fill:#FFDF1B;" d="M80.865,9.36l4.46-2.61l0.07-0.16
	c-0.46-1.04-0.12-2.2,0.12-3.24c-2.25,1.13-4.25,2.41-6.2,3.47l-0.05,0.16l1.39,2.31L80.865,9.36z M85.675,9.76
	c0.05-0.62,0.16-1.43,0.3-2.08c-1.16,0.53-2.27,1.27-3.39,1.97C83.625,9.71,84.625,9.87,85.675,9.76z M84.855,10.91l-3.46-0.39
	c0.05,0.74-0.07,1.55-0.19,2.31C82.395,12.35,83.605,11.61,84.855,10.91z M84.675,19.78c1.97-1.85,4.29-3.36,6.45-4.75l-1.28-2.2
	c-0.58,0.53-1.11,1.57-1.93,1.85c-0.93-0.88-1.55-1.85-1.9-3.01c-1.51,0.74-3.01,1.44-4.38,2.31c0.83,1.97,1.93,3.87,2.85,5.79h0.19
	V19.78z M83.745,20.57c-0.88-1.94-1.95-3.8-2.88-5.72l-0.23-0.16c-1.32,2.41-2.32,5.02-3.13,7.66c-0.65,1.39-1.86,2.48-2.85,3.63
	c-0.3,0.35-0.58,0.81-0.42,1.39c0.07,0.16,0.19,0.39,0.42,0.35C78.365,26.63,81.035,23.32,83.745,20.57z M88.615,17.81
	c-4.36,2.8-7.19,7.59-11.83,9.97c-0.63,0.28-1.32,0.51-1.86,0.9c0.19,0.25,0.19,0.65,0.53,0.6c1.86-0.76,3.6-1.81,5.15-3.12
	c3.53-3.36,7.24-7.31,11.49-9.67c-0.12-0.23-0.3-0.46-0.46-0.65L88.615,17.81z M95.255,0.36c-1.18,0-2.48-0.07-3.71,0.02
	c-1.16,0.09-2.25,0.35-3.16,0.9c-0.67,0.39-1.25,0.97-1.67,1.78c-0.26,0.55-0.4,1.18-0.4,1.83v0.12c0.02,0.9,0.3,1.83,0.86,2.5
	c-0.23,1.39-0.42,3.12,0.28,4.4c0.19,0.35,0.46,0.86,0.88,0.93c0-0.02,0.02-0.02,0.05-0.05c0.56-0.7,1-1.53,1.23-2.43
	c0.28-1.27,0.74,0.39,1.32,0.28c0.23-0.58,0.53-1.16,0.46-1.85c0.05-0.12,0.09-0.16,0.14-0.18c0.21-0.12,0.53,0.46,0.86,0.53
	c0.35-0.35,0.51-0.93,0.63-1.39c0.23-0.58-0.16-1.2,0.19-1.67c0.77,0.28,1.74,0.53,2.62,0.18c0.35-0.12,1.11-0.32,0.93-0.58
	c-0.42-0.07-0.77-0.23-0.93-0.53c1.09,0.07,2.2-0.05,2.9-0.86c-0.58-0.18-1.27-0.3-1.51-0.81c0.05-0.12,0.12-0.12,0.16-0.19
	c3.13,0.35,6.91,0.83,9.58-0.74c0.81-0.58,1.55-1.5,1.55-2.55C104.415,0.94,99.595,0.75,95.255,0.36z M89.195,7.28
	c-0.32,0.07-0.67-0.16-0.79-0.51c0-0.09-0.02-0.16-0.02-0.21c-0.16-0.49-1.07-0.46-0.79-1.06c0.28,0.02,0.51,0.12,0.79,0.16
	c0.16,0.05,0.32,0.07,0.53,0.07c0.05,0.35,0.23,1.3,0.3,1.39L89.195,7.28z M94.025,2.26c-0.28,0.23-0.69,0.35-1.09,0.35
	c-0.33,0.46-0.79,0.86-1.39,0.81c-0.07,0-0.14-0.02-0.21-0.05c-0.35,0.35-0.84,0.63-1.37,0.56c-0.4-0.05-0.86-0.12-1.04-0.46
	c0.58-0.05,1.35-0.16,1.58-0.86c0.21-0.42,0.7-0.09,1.04-0.18c0.05,0,0.07-0.02,0.12-0.05c0.35-0.19,0.51-0.42,0.74-0.65
	c0.53,0.07,1.04,0.23,1.62,0.14C94.255,1.91,94.095,2.14,94.025,2.26z"/>
<path id="Fill-33" style="fill-rule:evenodd;clip-rule:evenodd;fill:#FFDF1B;" d="M161.795,9.64c-0.58-1.23-2.18-2.5-4.27-2.5
	c-1.44-0.02-2.81-0.02-4.27-0.02c-2,0-4.13,0-6.84,0.02c-1.28,4.93-2.76,9.98-4.08,15.39c2.07,0.05,4.15-0.02,6.57-0.02h0.46
	l1.16-4.21l0.14-0.35c0.23,0,0.67-0.05,0.79,0.12l1.11,4.44h0.7c2.65-0.09,4.41,0,6.52,0c-0.42-1.85-0.9-3.56-1.18-5.46
	c0.93-0.65,2.13-1.57,2.71-2.55C162.195,13.11,162.605,11.15,161.795,9.64 M155.255,10.84l-1,3.82c-0.14,0.53-0.56,0.88-1,0.95
	h-0.19c0,0-1.32,0.02-1.83,0.02l0.02-0.12c-0.05,0.19,1.51-6.27,1.51-6.27c0.16,0,0.32,0,0.49-0.02c0.74-0.05,1.58-0.14,1.93,0.46
	C155.395,10.2,155.255,10.84,155.255,10.84"/>
<path id="Fill-34" style="fill-rule:evenodd;clip-rule:evenodd;fill:#FFDF1B;" d="M139.195,7.53l-0.07-0.39
	c-2.16-0.02-4.25,0-6.33,0c-0.53,0.86-1.04,1.71-1.58,2.57c-2.62,4.24-5.27,8.54-7.87,12.71l-0.07,0.12
	c1.02-0.02,2.09-0.02,2.99-0.02c0.49-0.7,0.86-1.55,1.53-2.34l3.41,0.02h2.23v0.14c0.05,0.88,0.07,1.43,0.14,2.2
	c2.32,0,4.43-0.05,6.87-0.02L139.195,7.53z M133.115,17.69h-3.88c0.56-1.09,1.25-2.22,1.97-3.33c0.44-0.67,0.86-1.32,1.25-1.94
	c0.28,0.12,0.12,0.49,0.3,0.67l0.42,4.51L133.115,17.69z"/>
<path id="Fill-35" style="fill-rule:evenodd;clip-rule:evenodd;fill:#FFDF1B;" d="M75.715,10.8c-0.49-1.9-2.34-3.77-4.71-3.77h-3.87
	h-5.87l-3.99,15.51l9.86-0.02h0.9c1.07,0,2.27-0.58,3.25-1.23C74.535,19.13,76.645,14.9,75.715,10.8 M69.755,10.94l-2.25,8.47
	c-0.07,0.26-0.21,0.46-0.37,0.62c-0.23,0.19-0.53,0.3-0.84,0.3c0,0-1.3,0.02-1.83,0.02l0.05-0.11c-0.05,0.16,2.07-8.22,2.62-10.39
	c0.07-0.32,0.12-0.51,0.12-0.51c0.79,0,2-0.3,2.44,0.44C69.865,10.29,69.755,10.94,69.755,10.94"/>
<path id="Fill-36" style="fill-rule:evenodd;clip-rule:evenodd;fill:#FFDF1B;" d="M55.945,9.99c-0.46-0.74-1.02-1.5-2.09-2.15
	c-1.79-1.04-3.97-1.34-6.01-1.11c-1.28,0.16-2.48,0.53-3.48,1.11c-3.32,1.9-5.41,5.72-5.06,9.58c0.16,2.38,2.02,4.37,4.18,5.02
	c1.44,0.39,2.92,0.51,4.36,0.35c2.3-0.25,4.43-1.27,6.01-3.03C56.185,17.21,57.485,12.42,55.945,9.99 M50.445,10.43l-2.34,9.26
	c-0.07,0.18-0.16,0.35-0.25,0.49c-0.35,0.46-0.88,0.76-1.46,0.76c-0.77,0-1.28-0.79-1.14-1.32l2.37-9.26
	c0.05-0.21,0.12-0.39,0.23-0.55c0.3-0.46,0.84-0.79,1.39-0.79C50.005,9.02,50.545,9.71,50.445,10.43"/>
<path id="Fill-37" style="fill-rule:evenodd;clip-rule:evenodd;fill:#FFDF1B;" d="M36.435,9.99c-0.46-0.74-1-1.5-2.09-2.15
	c-1.79-1.04-3.99-1.34-6.03-1.09c-1.25,0.14-2.46,0.51-3.46,1.09c-2.9,1.67-4.87,4.81-5.08,8.19v1.11c0.02,0.09,0.02,0.18,0.02,0.28
	c0.19,2.38,2.02,4.37,4.18,5.02c1.44,0.39,2.92,0.51,4.34,0.35c2.3-0.25,4.45-1.27,6.03-3.03C36.695,17.21,37.965,12.42,36.435,9.99
	 M30.865,10.36l-2.37,9.26c-0.05,0.19-0.12,0.35-0.19,0.49c-0.3,0.53-0.84,0.83-1.44,0.83c-0.76,0-1.28-0.79-1.11-1.32l2.34-9.26
	c0.05-0.19,0.12-0.37,0.21-0.53c0.3-0.49,0.86-0.81,1.42-0.81C30.495,9.02,31.055,9.71,30.865,10.36"/>
<path id="Fill-29" style="fill-rule:evenodd;clip-rule:evenodd;fill:#FFDF1B;" d="M13.955,7.35c-3.92-1.16-8.4-0.19-11.18,2.59
	c-2.39,2.36-3.32,5.99-2.46,9.35c0.42,1.55,2.25,3.19,4.34,3.17l10.56,0.02l0.23-0.12l2.07-8.01c-2.13-0.02-4.45,0.05-6.78,0.02
	c0,0-1.69,5.97-1.72,6.11c-0.69,0.12-1.48,0.25-2.13,0c-0.42-0.16-0.58-0.6-0.46-1.06l2.39-9.07c0.07-0.3,0.51-0.81,0.93-1
	c1.09-0.46,2.48-0.28,3.41,0.23c0,0,0.6,0.37,1.09,0.65c0.35-0.67,0.77-1.39,1.07-2.15C14.835,7.7,14.415,7.63,13.955,7.35"/>
</svg>
